<?xml version="1.0" encoding="UTF-8" standalone="no"?>
<!DOCTYPE svg PUBLIC "-//W3C//DTD SVG 1.1//EN" "http://www.w3.org/Graphics/SVG/1.1/DTD/svg11.dtd">
<svg width="100%" height="100%" viewBox="0 0 1131 508" version="1.1" xmlns="http://www.w3.org/2000/svg" xmlns:xlink="http://www.w3.org/1999/xlink" xml:space="preserve" xmlns:serif="http://www.serif.com/" style="fill-rule:evenodd;clip-rule:evenodd;stroke-linejoin:round;stroke-miterlimit:2;">
    <g transform="matrix(1,0,0,1,-566.929,-2270.08)">
        <g>
            <g transform="matrix(6.05706,0,0,2.1866,-2093.85,-2550.85)">
                <rect x="439.286" y="2204.76" width="186.611" height="232.267" style="fill:white;"/>
            </g>
            <g transform="matrix(515.949,0,0,515.949,690.222,2715.64)">
                <path d="M0.099,-0L0.099,-0.564C0.099,-0.62 0.115,-0.665 0.148,-0.698C0.181,-0.732 0.229,-0.749 0.29,-0.749C0.312,-0.749 0.333,-0.746 0.352,-0.742C0.372,-0.737 0.389,-0.73 0.403,-0.72L0.368,-0.626C0.359,-0.633 0.348,-0.638 0.336,-0.642C0.324,-0.646 0.312,-0.648 0.299,-0.648C0.273,-0.648 0.254,-0.641 0.24,-0.627C0.227,-0.612 0.22,-0.591 0.22,-0.562L0.22,-0.502L0.224,-0.446L0.224,-0L0.099,-0ZM0.011,-0.43L0.011,-0.53L0.549,-0.53L0.435,-0.43L0.011,-0.43Z" style="fill:rgb(35,31,32);fill-rule:nonzero;"/>
            </g>
            <g transform="matrix(1.33627,0,0,0.690885,-212.928,1495.96)">
                <rect x="627.734" y="1532.59" width="319.734" height="61.91" style="fill:rgb(239,92,161);"/>
            </g>
            <g transform="matrix(0.741523,0,0,0.690885,230.418,1617.64)">
                <rect x="627.734" y="1532.59" width="319.734" height="61.91" style="fill:rgb(239,92,161);"/>
            </g>
            <g transform="matrix(515.949,0,0,515.949,805.841,2715.64)">
                <path d="M0.411,-0L0.411,-0.108L0.404,-0.131L0.404,-0.32C0.404,-0.357 0.393,-0.385 0.371,-0.405C0.349,-0.426 0.315,-0.436 0.271,-0.436C0.241,-0.436 0.211,-0.431 0.183,-0.422C0.154,-0.413 0.129,-0.4 0.109,-0.383L0.06,-0.474C0.089,-0.496 0.123,-0.512 0.163,-0.524C0.202,-0.535 0.244,-0.54 0.286,-0.54C0.363,-0.54 0.423,-0.522 0.466,-0.485C0.508,-0.448 0.529,-0.391 0.529,-0.313L0.529,-0L0.411,-0ZM0.243,0.007C0.203,0.007 0.168,-0 0.138,-0.014C0.108,-0.027 0.084,-0.046 0.068,-0.071C0.052,-0.095 0.044,-0.122 0.044,-0.153C0.044,-0.183 0.051,-0.21 0.066,-0.234C0.08,-0.258 0.104,-0.277 0.136,-0.291C0.169,-0.305 0.212,-0.312 0.266,-0.312L0.421,-0.312L0.421,-0.229L0.275,-0.229C0.232,-0.229 0.204,-0.222 0.189,-0.208C0.174,-0.195 0.167,-0.178 0.167,-0.158C0.167,-0.135 0.176,-0.117 0.194,-0.104C0.212,-0.091 0.237,-0.084 0.269,-0.084C0.3,-0.084 0.327,-0.091 0.352,-0.105C0.376,-0.119 0.394,-0.139 0.404,-0.167L0.425,-0.092C0.413,-0.06 0.392,-0.036 0.361,-0.019C0.33,-0.002 0.291,0.007 0.243,0.007Z" style="fill:rgb(35,31,32);fill-rule:nonzero;"/>
            </g>
            <g transform="matrix(515.949,0,0,515.949,1042.31,2715.64)">
                <path d="M0.247,0.007C0.203,0.007 0.16,0.001 0.119,-0.011C0.078,-0.022 0.045,-0.036 0.021,-0.053L0.069,-0.148C0.093,-0.132 0.122,-0.12 0.155,-0.11C0.188,-0.1 0.222,-0.095 0.255,-0.095C0.295,-0.095 0.323,-0.1 0.341,-0.111C0.358,-0.121 0.367,-0.136 0.367,-0.154C0.367,-0.169 0.361,-0.18 0.349,-0.188C0.337,-0.195 0.321,-0.201 0.302,-0.205C0.282,-0.209 0.261,-0.213 0.237,-0.216C0.214,-0.219 0.19,-0.224 0.167,-0.23C0.143,-0.235 0.122,-0.244 0.102,-0.254C0.083,-0.265 0.067,-0.28 0.055,-0.299C0.043,-0.318 0.037,-0.343 0.037,-0.373C0.037,-0.407 0.047,-0.436 0.066,-0.461C0.085,-0.486 0.112,-0.506 0.147,-0.52C0.182,-0.534 0.224,-0.54 0.272,-0.54C0.308,-0.54 0.344,-0.536 0.381,-0.528C0.418,-0.52 0.448,-0.508 0.472,-0.494L0.424,-0.399C0.399,-0.414 0.374,-0.425 0.348,-0.43C0.322,-0.436 0.296,-0.439 0.271,-0.439C0.233,-0.439 0.205,-0.433 0.187,-0.422C0.168,-0.411 0.159,-0.396 0.159,-0.379C0.159,-0.363 0.165,-0.351 0.177,-0.343C0.189,-0.335 0.205,-0.329 0.224,-0.324C0.244,-0.32 0.265,-0.316 0.289,-0.312C0.312,-0.309 0.336,-0.305 0.359,-0.299C0.383,-0.293 0.404,-0.285 0.424,-0.274C0.443,-0.264 0.459,-0.249 0.471,-0.231C0.483,-0.212 0.489,-0.188 0.489,-0.158C0.489,-0.124 0.479,-0.095 0.459,-0.071C0.44,-0.046 0.412,-0.027 0.376,-0.014C0.34,-0 0.297,0.007 0.247,0.007Z" style="fill:rgb(35,31,32);fill-rule:nonzero;"/>
            </g>
            <g transform="matrix(515.949,0,0,515.949,1351.71,2715.64)">
                <path d="M0.327,0.007C0.271,0.007 0.221,-0.005 0.177,-0.029C0.134,-0.052 0.099,-0.084 0.075,-0.126C0.05,-0.167 0.038,-0.214 0.038,-0.267C0.038,-0.321 0.05,-0.368 0.075,-0.409C0.099,-0.45 0.134,-0.482 0.177,-0.505C0.221,-0.529 0.271,-0.54 0.327,-0.54C0.379,-0.54 0.425,-0.53 0.465,-0.509C0.504,-0.488 0.534,-0.457 0.555,-0.416L0.459,-0.36C0.443,-0.385 0.423,-0.404 0.4,-0.416C0.377,-0.428 0.352,-0.434 0.326,-0.434C0.295,-0.434 0.267,-0.427 0.243,-0.414C0.218,-0.4 0.199,-0.381 0.185,-0.356C0.171,-0.331 0.164,-0.301 0.164,-0.267C0.164,-0.233 0.171,-0.203 0.185,-0.178C0.199,-0.153 0.218,-0.134 0.243,-0.12C0.267,-0.107 0.295,-0.1 0.326,-0.1C0.352,-0.1 0.377,-0.106 0.4,-0.118C0.423,-0.13 0.443,-0.149 0.459,-0.174L0.555,-0.118C0.534,-0.078 0.504,-0.047 0.465,-0.026C0.425,-0.004 0.379,0.007 0.327,0.007Z" style="fill:rgb(255,92,170);fill-rule:nonzero;"/>
            </g>
            <g transform="matrix(515.949,0,0,515.949,1230.52,2715.64)">
                <path d="M0.283,0.007C0.224,0.007 0.179,-0.009 0.147,-0.039C0.115,-0.069 0.099,-0.114 0.099,-0.173L0.099,-0.652L0.224,-0.652L0.224,-0.176C0.224,-0.15 0.23,-0.131 0.243,-0.117C0.256,-0.103 0.275,-0.096 0.298,-0.096C0.326,-0.096 0.349,-0.103 0.368,-0.118L0.403,-0.029C0.388,-0.017 0.37,-0.008 0.349,-0.002C0.327,0.004 0.305,0.007 0.283,0.007ZM0.011,-0.43L0.011,-0.53L0.367,-0.53L0.367,-0.43L0.011,-0.43Z" style="fill:rgb(35,31,32);fill-rule:nonzero;"/>
            </g>
        </g>
    </g>
</svg>
